<?xml version="1.0" encoding="utf-8"?>
<!-- Generator: Circuit Diagram, cdlibrary.dll 1.0.0.0 -->
<!DOCTYPE svg PUBLIC "-//W3C//DTD SVG 1.1//EN" "http://www.w3.org/Graphics/SVG/1.1/DTD/svg11.dtd">
<svg version="1.1" width="380" height="280" xmlns="http://www.w3.org/2000/svg">
	<line x1="90" y1="20" x2="90" y2="117" style="stroke:rgb(0,0,0);stroke-linecap:square;stroke-width:2" />
	<line x1="80" y1="117" x2="100" y2="117" style="stroke:rgb(0,0,0);stroke-linecap:square;stroke-width:2" />
	<line x1="85" y1="123" x2="95" y2="123" style="stroke:rgb(0,0,0);stroke-linecap:square;stroke-width:3" />
	<line x1="90" y1="123" x2="90" y2="220" style="stroke:rgb(0,0,0);stroke-linecap:square;stroke-width:2" />
	<text x="76" y="120" style="font-family:Arial;font-size:12px;text-anchor:end" dy=".3em">+5V</text>
	<text x="220" y="70" style="font-family:Arial;font-size:11px;text-anchor:start" dy=".3em">Photodiode</text>
	<text x="130" y="160" style="font-family:Arial;font-size:11px;text-anchor:start" dy=".3em">R ≈ 1.5k𝛀</text>
	<line x1="200" y1="110" x2="200" y2="145" style="stroke:rgb(0,0,0);stroke-linecap:square;stroke-width:2" />
	<rect x="192" y="145" width="16" height="40" style="fill-opacity:0;stroke:rgb(0,0,0);stroke-width:2" />
	<line x1="200" y1="185" x2="200" y2="220" style="stroke:rgb(0,0,0);stroke-linecap:square;stroke-width:2" />
	<path d="M 200,165 M 183,182 L 218,150 M 218,156 L 218,150 L 212,150" style="fill-opacity:0;fill:rgb(0,0,0);stroke:rgb(0,0,0);stroke-width:2" />
	<text x="20" y="140" style="font-family:Arial;font-size:11px;text-anchor:start" dy=".3em">From Arduino</text>
	<line x1="200" y1="110" x2="200" y2="20" style="stroke:rgb(0,0,0);stroke-linecap:square;stroke-width:2" />
	<path d="M 200,58 M 192,58 L 208,58 M 200,58 L 208,73 L 192,73 L 200,58" style="fill-opacity:0;fill:rgb(0,0,0);stroke:rgb(0,0,0);stroke-width:2" />
	<path d="M 200,60 M 178,82 L 186,74 M 187,73 L 185,77 L 183,75 L 187,73 L 185,77" style="fill-opacity:0;fill:rgb(0,0,0);stroke:rgb(0,0,0);stroke-width:2" />
	<path d="M 200,60 M 174,77 L 182,69 M 183,68 L 181,72 L 179,70 L 183,68 L 181,72" style="fill-opacity:0;fill:rgb(0,0,0);stroke:rgb(0,0,0);stroke-width:2" />
	<text x="290" y="155" style="font-family:Arial;font-size:12px;text-anchor:middle" dy="1em"></text>
	<line x1="290" y1="110" x2="290" y2="147" style="stroke:rgb(0,0,0);stroke-linecap:square;stroke-width:2" />
	<ellipse cx="290" cy="150" rx="3" ry="3" style="fill-opacity:0;fill:rgb(0,0,0);stroke:rgb(0,0,0);stroke-width:2" />
	<text x="290" y="175" style="font-family:Arial;font-size:12px;text-anchor:middle" dy="-0.3em">To Arduino's input</text>
	<line x1="290" y1="183" x2="290" y2="220" style="stroke:rgb(0,0,0);stroke-linecap:square;stroke-width:2" />
	<ellipse cx="290" cy="180" rx="3" ry="3" style="fill-opacity:0;fill:rgb(0,0,0);stroke:rgb(0,0,0);stroke-width:2" />
	<line x1="200" y1="220" x2="200" y2="238" style="stroke:rgb(0,0,0);stroke-linecap:square;stroke-width:2" />
	<line x1="192" y1="238" x2="208" y2="238" style="stroke:rgb(0,0,0);stroke-linecap:square;stroke-width:2" />
	<line x1="195" y1="244" x2="205" y2="244" style="stroke:rgb(0,0,0);stroke-linecap:square;stroke-width:2" />
	<line x1="198" y1="250" x2="202" y2="250" style="stroke:rgb(0,0,0);stroke-linecap:square;stroke-width:2" />
	<line x1="90" y1="20" x2="200" y2="20" style="stroke:rgb(0,0,0);stroke-linecap:square;stroke-width:2" />
	<line x1="90" y1="220" x2="200" y2="220" style="stroke:rgb(0,0,0);stroke-linecap:square;stroke-width:2" />
	<line x1="200" y1="110" x2="290" y2="110" style="stroke:rgb(0,0,0);stroke-linecap:square;stroke-width:2" />
	<line x1="200" y1="220" x2="290" y2="220" style="stroke:rgb(0,0,0);stroke-linecap:square;stroke-width:2" />
	<ellipse cx="200" cy="110" rx="2" ry="2" style="fill-opacity:1;fill:rgb(0,0,0);stroke:rgb(0,0,0);stroke-width:2" />
	<ellipse cx="200" cy="220" rx="2" ry="2" style="fill-opacity:1;fill:rgb(0,0,0);stroke:rgb(0,0,0);stroke-width:2" />
</svg>